<svg width="623" height="70" viewBox="0 0 623 70" fill="none" xmlns="http://www.w3.org/2000/svg">
<g filter="url(#filter0_d_0_1)">
<path d="M619 61.8989L72.6907 61.8989L55.0443 31.3989L72.6907 0.898985L619 0.898926L619 31.3988L619 61.8989Z" fill="black"/>
<path d="M63.3066 61.8989L45.515 31.1023L63.3066 0.898926L45.515 0.914993L27.7233 31.1023L45.515 61.8989L63.3066 61.8989Z" fill="black"/>
<path d="M37.8889 61.8989L20.9444 31.1023L37.8889 0.898926L20.9444 0.914993L4 31.1023L20.9444 61.8989L37.8889 61.8989Z" fill="black"/>
</g>
<path d="M106.79 45.3082V48.7642H94.7298V45.8842L102.146 27.0202H95.1618V23.5642H106.538V26.4442L99.1218 45.3082H106.79ZM126.59 48.7642H115.43V23.5642H126.482V27.2362H119.606V34.1482H125.366V37.8202H119.606V45.0922H126.59V48.7642ZM149.363 48.7642H145.115L141.911 38.7202H139.823V48.7642H135.647V23.5642H142.163C145.979 23.5642 148.499 25.0762 148.499 28.8922V33.3922C148.499 35.8042 147.491 37.3162 145.763 38.0722L149.363 48.7642ZM139.823 27.2362V35.1202H142.019C143.387 35.1202 144.323 34.6162 144.323 32.8162V29.5402C144.323 27.7402 143.387 27.2362 142.019 27.2362H139.823ZM157.655 28.6042C157.655 24.7522 160.175 23.2762 163.991 23.2762H164.279C168.095 23.2762 170.615 24.7882 170.615 28.6042V43.7242C170.615 47.5402 168.095 49.0522 164.279 49.0522H163.991C160.175 49.0522 157.655 47.5402 157.655 43.7242V28.6042ZM161.831 43.0762C161.831 44.8762 162.767 45.3802 164.135 45.3802C165.503 45.3802 166.439 44.8762 166.439 43.0762V29.2522C166.439 27.4522 165.503 26.9482 164.135 26.9482C162.767 26.9482 161.831 27.4522 161.831 29.2522V43.0762ZM204.106 38.7922V43.7242C204.106 47.3242 202.162 49.0522 198.346 49.0522H198.274C194.458 49.0522 192.514 47.3602 192.514 43.7242V28.6042C192.514 25.1482 194.458 23.2762 198.274 23.2762H198.346C202.162 23.2762 204.106 25.1482 204.106 28.6042V32.9242H202.162V29.2522C202.162 26.3002 201.118 25.0762 198.31 25.0762C195.502 25.0762 194.458 26.3002 194.458 29.2522V43.0762C194.458 46.0282 195.502 47.2522 198.31 47.2522C201.118 47.2522 202.162 46.0282 202.162 43.0762V38.7922H204.106ZM214.559 28.6042C214.559 25.0402 216.503 23.2762 220.319 23.2762H220.607C224.423 23.2762 226.367 25.0762 226.367 28.6042V43.7242C226.367 47.2522 224.423 49.0522 220.607 49.0522H220.319C216.503 49.0522 214.559 47.2522 214.559 43.7242V28.6042ZM216.503 43.0762C216.503 46.0642 217.619 47.2522 220.463 47.2522C223.307 47.2522 224.423 46.0642 224.423 43.0762V29.2522C224.423 26.2642 223.307 25.0762 220.463 25.0762C217.619 25.0762 216.503 26.2642 216.503 29.2522V43.0762ZM251.825 28.4962L245.957 44.5162H244.841L238.937 28.4962V48.7642H237.101V23.5642H239.009L245.345 41.0242L251.753 23.5642H253.769V48.7642H251.825V28.4962ZM279.355 28.4962L273.487 44.5162H272.371L266.467 28.4962V48.7642H264.631V23.5642H266.539L272.875 41.0242L279.283 23.5642H281.299V48.7642H279.355V28.4962ZM294.249 48.7642H292.305V23.5642H294.249V48.7642ZM315.032 23.5642V25.3642H310.28V48.7642H308.336V25.3642H303.584V23.5642H315.032ZM338.883 28.4962L333.015 44.5162H331.899L325.995 28.4962V48.7642H324.159V23.5642H326.067L332.403 41.0242L338.811 23.5642H340.827V48.7642H338.883V28.4962ZM361.697 48.7642H351.689V23.5642H361.589V25.3642H353.633V35.0842H360.473V36.8842H353.633V46.9642H361.697V48.7642ZM373.497 48.7642H371.625V23.5642H373.641L381.885 44.1562V23.5642H383.757V48.7642H381.849L373.497 28.0282V48.7642ZM404.34 23.5642V25.3642H399.588V48.7642H397.644V25.3642H392.892V23.5642H404.34Z" fill="white"/>
<defs>
<filter id="filter0_d_0_1" x="0" y="0.898926" width="623" height="69" filterUnits="userSpaceOnUse" color-interpolation-filters="sRGB">
<feFlood flood-opacity="0" result="BackgroundImageFix"/>
<feColorMatrix in="SourceAlpha" type="matrix" values="0 0 0 0 0 0 0 0 0 0 0 0 0 0 0 0 0 0 127 0" result="hardAlpha"/>
<feOffset dy="4"/>
<feGaussianBlur stdDeviation="2"/>
<feComposite in2="hardAlpha" operator="out"/>
<feColorMatrix type="matrix" values="0 0 0 0 0 0 0 0 0 0 0 0 0 0 0 0 0 0 0.25 0"/>
<feBlend mode="normal" in2="BackgroundImageFix" result="effect1_dropShadow_0_1"/>
<feBlend mode="normal" in="SourceGraphic" in2="effect1_dropShadow_0_1" result="shape"/>
</filter>
</defs>
</svg>
